# xmcd CD database file
#
# Track frame offsets:
#	150
#	26025
#	50017
#	76887
#	95192
#	119772
#	147807
#
# Disc length: 2365 seconds
#
# Revision: 0
# Processed by: cddbd v1.5.2PL0 Copyright (c) Steve Scherf et al.
# Submitted via: CDex 1.70beta3
#
DISCID=62093b07
DTITLE=LOU DONALDSON - SUNNY SIDE UP
DYEAR=1960
DGENRE=Jazz
TTITLE0=Blues for J.P.
TTITLE1=The man I love
TTITLE2=Politely
TTITLE3=It's you or no one
TTITLE4=The truth
TTITLE5=Goose grease
TTITLE6=Softly as in a morning sunrise
EXTD=YEAR: 1960
EXTT0=
EXTT1=
EXTT2=
EXTT3=
EXTT4=
EXTT5=
EXTT6=
PLAYORDER=
